<svg height="512" viewBox="0 0 64 64" width="512" xmlns="http://www.w3.org/2000/svg"><g id="Line"><path d="m52.11 51.292c3.869-5.272 8.89-13.592 8.89-21.292a14 14 0 0 0 -28 0c0 7.7 5.024 16.024 8.893 21.3-5.371.635-10.893 2.415-10.893 5.7 0 3.939 8.049 6 16 6s16-2.061 16-6c0-3.276-5.449-5.068-10.89-5.708zm-5.11-26.292a5 5 0 1 1 -5 5 5.006 5.006 0 0 1 5-5zm0 36c-8.546 0-14-2.369-14-4 0-1.263 3.584-3.258 10.309-3.839 1.608 2.051 2.8 3.35 2.959 3.52a1 1 0 0 0 1.464 0c.158-.17 1.353-1.471 2.962-3.524l.214.018c6.885.634 10.092 2.657 10.092 3.825 0 1.631-5.454 4-14 4z" fill="#c4a2fc"/><g fill="#151a6a"><path d="m45.973 18-6.2.173-14.004-16.813a1 1 0 0 0 -.769-.36h-5a1 1 0 0 0 -.895 1.447l8.039 16.076-16.744.465-4.7-4.695a1 1 0 0 0 -.7-.293h-3a1 1 0 0 0 -.937 1.351l2.869 7.649-2.869 7.649a1 1 0 0 0 .937 1.351h3a1 1 0 0 0 .707-.293l4.7-4.695 16.741.465-8.043 16.076a1 1 0 0 0 .895 1.447h5a1 1 0 0 0 .769-.36l14.006-16.813 6.225.173a5 5 0 1 0 -.027-10zm-24.355-15h2.914l12.7 15.243-7.882.219zm2.914 40h-2.914l7.731-15.462 7.882.219zm21.5-17-36-1a.955.955 0 0 0 -.735.293l-4.711 4.707h-1.143l2.494-6.649a1.009 1.009 0 0 0 0-.7l-2.494-6.651h1.143l4.707 4.707a.991.991 0 0 0 .735.293l35.972-1a3 3 0 0 1 .028 6z"/><path d="m9 6h8a1 1 0 0 0 0-2h-8a1 1 0 0 0 0 2z"/><path d="m10 10a1 1 0 0 0 1 1h8a1 1 0 0 0 0-2h-8a1 1 0 0 0 -1 1z"/><path d="m17 40h-8a1 1 0 0 0 0 2h8a1 1 0 0 0 0-2z"/><path d="m20 36a1 1 0 0 0 -1-1h-8a1 1 0 0 0 0 2h8a1 1 0 0 0 1-1z"/></g></g></svg>